<svg xmlns="http://www.w3.org/2000/svg" xmlns:xlink="http://www.w3.org/1999/xlink" width="400" zoomAndPan="magnify" viewBox="0 0 300 299.999988" height="400" preserveAspectRatio="xMidYMid meet" version="1.0"><defs><g/><clipPath id="a761658e4f"><path d="M 3.199219 0 L 300 0 L 300 300 L 3.199219 300 Z M 3.199219 0 " clip-rule="nonzero"/></clipPath></defs><rect x="-30" width="360" fill="#ffffff" y="-29.999999" height="359.999986" fill-opacity="1"/><rect x="-30" width="360" fill="#ffffff" y="-29.999999" height="359.999986" fill-opacity="1"/><g clip-path="url(#a761658e4f)"><path fill="#000000" d="M 3.199219 0 L 300 0 L 300 300.277344 L 3.199219 300.277344 Z M 3.199219 0 " fill-opacity="1" fill-rule="nonzero"/></g><g fill="#ffffff" fill-opacity="1"><g transform="translate(42.865671, 219.401782)"><g><path d="M 16.8125 -134.9375 L 101.921875 -134.9375 L 101.921875 -111.765625 L 39.78125 -111.765625 L 39.78125 -79.15625 L 86.75 -79.15625 L 86.75 -55.984375 L 39.78125 -55.984375 L 39.78125 0 L 16.8125 0 Z M 16.8125 -134.9375 "/></g></g></g><g fill="#ffffff" fill-opacity="1"><g transform="translate(118.73371, 219.401782)"><g><path d="M 127.765625 0 L 77.109375 0 C 64.804688 0 53.523438 -3.078125 43.265625 -9.234375 C 32.878906 -15.378906 24.675781 -23.71875 18.65625 -34.25 C 12.507812 -44.632812 9.4375 -55.914062 9.4375 -68.09375 C 9.4375 -80.53125 12.507812 -91.941406 18.65625 -102.328125 C 24.8125 -112.859375 33.085938 -121.203125 43.484375 -127.359375 C 53.734375 -133.367188 64.941406 -136.375 77.109375 -136.375 C 86.546875 -136.375 95.707031 -134.460938 104.59375 -130.640625 C 113.34375 -126.671875 120.789062 -121.203125 126.9375 -114.234375 L 109.921875 -98.84375 C 105.679688 -103.5 100.691406 -107.054688 94.953125 -109.515625 C 89.210938 -111.972656 83.265625 -113.203125 77.109375 -113.203125 C 69.046875 -113.203125 61.59375 -111.21875 54.75 -107.25 C 47.78125 -103.15625 42.3125 -97.6875 38.34375 -90.84375 C 34.382812 -83.875 32.40625 -76.289062 32.40625 -68.09375 C 32.40625 -59.882812 34.457031 -52.363281 38.5625 -45.53125 C 42.519531 -38.550781 47.914062 -33.082031 54.75 -29.125 C 61.59375 -25.019531 69.046875 -22.96875 77.109375 -22.96875 L 104.796875 -22.96875 L 104.796875 -51.46875 L 72.59375 -51.46875 L 72.59375 -74.4375 L 127.765625 -74.4375 Z M 127.765625 0 "/></g></g></g></svg>